<?xml version="1.0" standalone="no"?>
<!DOCTYPE svg PUBLIC "-//W3C//DTD SVG 20010904//EN"
 "http://www.w3.org/TR/2001/REC-SVG-20010904/DTD/svg10.dtd">
<svg version="1.0" xmlns="http://www.w3.org/2000/svg"
 width="48.000000pt" height="48.000000pt" viewBox="0 0 48.000000 48.000000"
 preserveAspectRatio="xMidYMid meet">

<g transform="translate(0.000000,48.000000) scale(0.100000,-0.100000)"
fill="#000000" stroke="none">
<path d="M111 436 c-15 -17 -11 -236 4 -236 6 0 11 45 13 111 l3 111 84 -3
c75 -4 87 -7 112 -31 28 -27 53 -36 53 -20 0 16 -43 54 -76 68 -45 19 -178 19
-193 0z"/>
<path d="M160 300 l0 -90 61 0 c54 0 64 3 90 29 39 40 39 82 0 122 -26 26 -36
29 -90 29 l-61 0 0 -90z m130 40 c43 -43 9 -100 -60 -100 l-40 0 0 60 0 60 40
0 c27 0 47 -7 60 -20z"/>
<path d="M378 313 c-3 -4 -8 -21 -12 -38 -4 -16 -19 -42 -34 -58 l-26 -27 21
-44 c21 -41 21 -56 1 -56 -4 0 -18 20 -30 45 l-22 45 -58 0 -58 0 0 -45 c0
-33 -4 -45 -15 -45 -9 0 -15 9 -15 25 0 16 -6 25 -15 25 -20 0 -20 -44 1 -64
31 -32 74 -6 74 45 0 26 3 29 34 29 25 0 36 -5 41 -19 19 -62 83 -93 105 -51
8 15 6 28 -9 58 -19 37 -19 38 0 61 26 32 45 99 32 112 -6 6 -13 7 -15 2z"/>
</g>
</svg>
